# xmcd
#
# Track frame offsets:
#	150
#	12193
#	26239
#	44622
#	56888
#	72844
#	85653
#	101229
#	115176
#	132149
#	158719
#	166221
#	183709
#	193889
#
# Disc length: 2719 seconds
# Revision: 0
# Processed by: cddbd v1.5.2PL0 Copyright (c) Steve Scherf et al.
# Submitted via: dBpowerAMP V12.0
#
DISCID=c40a9d0e
DTITLE=Ben Winship - Acorns
DYEAR=2019
DGENRE=Americana
TTITLE0=A Little Goes a Long Way
TTITLE1=Shakin Down the Acorns
TTITLE2=Pilgrim
TTITLE3=I'll Live On
TTITLE4=Phoebe's Rest
TTITLE5=Cherry Tree
TTITLE6=Katy Bar the Door
TTITLE7=Turtle Dove
TTITLE8=Fit to be Tied/Sail Away Ladies
TTITLE9=New River Train
TTITLE10=One-Eyed Dolly
TTITLE11=Lily Green/Grey Owl
TTITLE12=Kennedy Rag
TTITLE13=Boys, Them Buzzards are Flying
EXTD=
EXTT0=
EXTT1=
EXTT2=
EXTT3=
EXTT4=
EXTT5=
EXTT6=
EXTT7=
EXTT8=
EXTT9=
EXTT10=
EXTT11=
EXTT12=
EXTT13=
PLAYORDER=
